<?xml version="1.0" encoding="UTF-8" standalone="no"?>
<svg
   xmlns:dc="http://purl.org/dc/elements/1.1/"
   xmlns:cc="http://creativecommons.org/ns#"
   xmlns:rdf="http://www.w3.org/1999/02/22-rdf-syntax-ns#"
   xmlns:svg="http://www.w3.org/2000/svg"
   xmlns="http://www.w3.org/2000/svg"
   xmlns:sodipodi="http://sodipodi.sourceforge.net/DTD/sodipodi-0.dtd"
   xmlns:inkscape="http://www.inkscape.org/namespaces/inkscape"
   id="Layer_1"
   data-name="Layer 1"
   viewBox="0 0 459.58 437.9"
   version="1.1"
   sodipodi:docname="Mesh.svg"
   inkscape:version="0.92.4 (5da689c313, 2019-01-14)">
  <metadata
     id="metadata4491">
    <rdf:RDF>
      <cc:Work
         rdf:about="">
        <dc:format>image/svg+xml</dc:format>
        <dc:type
           rdf:resource="http://purl.org/dc/dcmitype/StillImage" />
        <dc:title>17209</dc:title>
      </cc:Work>
    </rdf:RDF>
  </metadata>
  <sodipodi:namedview
     pagecolor="#ffffff"
     bordercolor="#666666"
     borderopacity="1"
     objecttolerance="10"
     gridtolerance="10"
     guidetolerance="10"
     inkscape:pageopacity="0"
     inkscape:pageshadow="2"
     inkscape:window-width="1920"
     inkscape:window-height="1027"
     id="namedview4489"
     showgrid="false"
     inkscape:zoom="1.3854707"
     inkscape:cx="188.80617"
     inkscape:cy="220.15397"
     inkscape:window-x="-8"
     inkscape:window-y="-8"
     inkscape:window-maximized="1"
     inkscape:current-layer="g4486" />
  <defs
     id="defs4108">
    <style
       id="style4103">.cls-1{fill:none;}.cls-2{clip-path:url(#clip-path);}.cls-3{fill:#c4c4c4;}.cls-4{fill:#231f20;}</style>
    <clipPath
       id="clip-path"
       transform="translate(-142.83 97.68)">
      <rect
         class="cls-1"
         x="0.5"
         width="576"
         height="288"
         id="rect4105" />
    </clipPath>
  </defs>
  <title
     id="title4110">17209</title>
  <g
     class="cls-2"
     clip-path="url(#clip-path)"
     id="g4486"
     transform="matrix(1.5214127,0,0,1.5214127,-238.13599,0)">
    <g
       id="triangle36">
      <path
         class="cls-3"
         d="m 602.17,-49.49 -56,-31 15.07,-13.51 41,30.14 v -0.58 l -40.87,-30.04 a 0.23,0.23 0 0 0 -0.3,0 l -15.5,13.88 a 0.23,0.23 0 0 0 -0.08,0.2 0.23,0.23 0 0 0 0.12,0.18 L 602.17,-49 Z"
         transform="translate(-142.83,97.68)"
         id="path4112"
         inkscape:connector-curvature="0"
         style="fill:#c4c4c4" />
    </g>
    <g
       id="triangle36-2"
       data-name="triangle36">
      <path
         class="cls-3"
         d="M 602,-7.11 546.59,-79.67 602.17,-49 v -0.53 l -56.33,-31.09 a 0.23,0.23 0 0 0 -0.29,0.05 0.23,0.23 0 0 0 0,0.3 L 602,-6.34 Z"
         transform="translate(-142.83,97.68)"
         id="path4115"
         inkscape:connector-curvature="0"
         style="fill:#c4c4c4" />
    </g>
    <g
       id="triangle36-3"
       data-name="triangle36">
      <path
         class="cls-3"
         d="m 373.46,339.31 75.39,-34 7.39,34.42 h 0.48 l -7.47,-34.8 a 0.23,0.23 0 0 0 -0.33,-0.16 l -76.59,34.53 z"
         transform="translate(-142.83,97.68)"
         id="path4118"
         inkscape:connector-curvature="0"
         style="fill:#c4c4c4" />
    </g>
    <g
       id="triangle36-4"
       data-name="triangle36">
      <polygon
         class="cls-3"
         points="457.43,422.58 457.44,422.09 407.98,437.89 409.5,437.9 "
         id="polygon4121"
         style="fill:#c4c4c4" />
    </g>
    <g
       id="triangle36-5"
       data-name="triangle36">
      <path
         class="cls-3"
         d="m 602.25,-64.42 -40.34,-29.66 40.49,-1.34 v -0.47 l -41.19,1.37 a 0.24,0.24 0 0 0 -0.22,0.17 0.23,0.23 0 0 0 0.09,0.26 l 41.16,30.26 z"
         transform="translate(-142.83,97.68)"
         id="path4124"
         inkscape:connector-curvature="0"
         style="fill:#c4c4c4" />
    </g>
    <g
       id="triangle36-6"
       data-name="triangle36">
      <path
         class="cls-3"
         d="m 601.39,104.51 -54.59,-3.22 44.1,-26.74 10.6,8.25 v -0.59 l -10.44,-8.13 a 0.24,0.24 0 0 0 -0.27,0 L 545.9,101.3 a 0.23,0.23 0 0 0 0.11,0.43 l 55.38,3.27 z"
         transform="translate(-142.83,97.68)"
         id="path4127"
         inkscape:connector-curvature="0"
         style="fill:#c4c4c4" />
    </g>
    <g
       id="triangle36-7"
       data-name="triangle36">
      <path
         class="cls-3"
         d="m 196.3,338.4 9,-15.34 1.81,15.39 h 0.47 l -1.9,-16.14 a 0.23,0.23 0 0 0 -0.44,-0.09 l -9.48,16.17 z"
         transform="translate(-142.83,97.68)"
         id="path4130"
         inkscape:connector-curvature="0"
         style="fill:#c4c4c4" />
    </g>
    <g
       id="triangle36-8"
       data-name="triangle36">
      <polygon
         class="cls-3"
         points="457.43,422.58 457.44,422.09 407.98,437.89 409.5,437.9 "
         id="polygon4133"
         style="fill:#c4c4c4" />
      <path
         class="cls-3"
         d="M 600.28,321.86 548.43,309 a 0.24,0.24 0 0 0 -0.28,0.17 l -7.85,31 h 0.48 l 7.76,-30.67 51.74,12.85 z"
         transform="translate(-142.83,97.68)"
         id="path4135"
         inkscape:connector-curvature="0"
         style="fill:#c4c4c4" />
    </g>
    <g
       id="triangle36-9"
       data-name="triangle36">
      <path
         class="cls-3"
         d="M 600.83,214.43 572.5,230.69 551.1,225 600.87,205.94 v -0.5 l -50.61,19.36 a 0.23,0.23 0 0 0 0,0.45 l 22.19,5.93 h 0.06 a 0.23,0.23 0 0 0 0.12,0 L 600.83,215 Z"
         transform="translate(-142.83,97.68)"
         id="path4138"
         inkscape:connector-curvature="0"
         style="fill:#c4c4c4" />
    </g>
    <g
       id="triangle36-10"
       data-name="triangle36">
      <path
         class="cls-3"
         d="m 456.72,339.73 -7.38,-34.39 28.66,10.16 -12.36,24.28 h 0.52 l 12.38,-24.31 a 0.23,0.23 0 0 0 -0.13,-0.33 L 449.1,304.76 a 0.23,0.23 0 0 0 -0.31,0.27 l 7.45,34.7 z"
         transform="translate(-142.83,97.68)"
         id="path4141"
         inkscape:connector-curvature="0"
         style="fill:#c4c4c4" />
    </g>
    <g
       id="triangle36-11"
       data-name="triangle36">
      <path
         class="cls-3"
         d="m 466.12,339.78 12.19,-23.94 15.16,24.08 H 494 l -15.54,-24.68 a 0.22,0.22 0 0 0 -0.21,-0.11 0.23,0.23 0 0 0 -0.2,0.13 l -12.48,24.52 z"
         transform="translate(-142.83,97.68)"
         id="path4144"
         inkscape:connector-curvature="0"
         style="fill:#c4c4c4" />
    </g>
    <g
       id="triangle36-12"
       data-name="triangle36">
      <path
         class="cls-3"
         d="M 493.47,339.92 H 494 l -15.12,-24 51.66,24.19 h 1.12 l -53.31,-25 a 0.23,0.23 0 0 0 -0.3,0.34 z"
         transform="translate(-142.83,97.68)"
         id="path4147"
         inkscape:connector-curvature="0"
         style="fill:#c4c4c4" />
    </g>
    <g
       id="triangle36-13"
       data-name="triangle36">
      <path
         class="cls-3"
         d="m 478.18,315.58 52.39,24.53 h 1.12 l -52.52,-24.59 68.89,-6 -7.77,30.69 h 0.48 l 7.82,-30.89 a 0.23,0.23 0 0 0 0,-0.21 0.24,0.24 0 0 0 -0.2,-0.08 l -70.09,6.16 a 0.23,0.23 0 0 0 -0.08,0.45 z"
         transform="translate(-142.83,97.68)"
         id="path4150"
         inkscape:connector-curvature="0"
         style="fill:#c4c4c4" />
    </g>
    <g
       id="triangle36-14"
       data-name="triangle36">
      <path
         class="cls-3"
         d="m 207.57,338.46 -1.84,-15.65 24.37,15.76 h 0.9 l -25.41,-16.43 a 0.23,0.23 0 0 0 -0.36,0.22 l 1.89,16.09 z"
         transform="translate(-142.83,97.68)"
         id="path4153"
         inkscape:connector-curvature="0"
         style="fill:#c4c4c4" />
    </g>
    <g
       id="triangle36-15"
       data-name="triangle36">
      <path
         class="cls-3"
         d="m 363.24,180.33 a 0.23,0.23 0 0 1 -0.23,-0.19 L 360.6,168.5 a 0.23,0.23 0 0 1 0.2,-0.28 l 59.6,-6.91 a 0.23,0.23 0 0 1 0.26,0.18 0.23,0.23 0 0 1 -0.16,0.27 l -57.19,18.55 z m -2.13,-11.67 2.3,11.14 54.69,-17.74 z"
         transform="translate(-142.83,97.68)"
         id="path4156"
         inkscape:connector-curvature="0"
         style="fill:#c4c4c4" />
    </g>
    <g
       id="triangle36-16"
       data-name="triangle36">
      <path
         class="cls-3"
         d="m 174.26,338.29 3.07,-33.59 27.78,17.73 -9.37,16 h 0.54 l 9.35,-15.94 a 0.23,0.23 0 0 0 -0.08,-0.32 l -28.3,-18.05 a 0.24,0.24 0 0 0 -0.23,0 0.23,0.23 0 0 0 -0.13,0.19 l -3.11,34 z"
         transform="translate(-142.83,97.68)"
         id="path4159"
         inkscape:connector-curvature="0"
         style="fill:#c4c4c4" />
    </g>
    <g
       id="triangle36-17"
       data-name="triangle36">
      <path
         class="cls-3"
         d="m 205.44,322.58 a 0.23,0.23 0 0 1 -0.12,0 L 177,304.49 a 0.23,0.23 0 0 1 0,-0.39 l 48.32,-33.95 a 0.23,0.23 0 0 1 0.35,0.28 l -20,52 a 0.24,0.24 0 0 1 -0.15,0.14 z M 177.56,304.28 205.32,322 225,271 Z"
         transform="translate(-142.83,97.68)"
         id="path4162"
         inkscape:connector-curvature="0"
         style="fill:#c4c4c4" />
    </g>
    <g
       id="triangle36-18"
       data-name="triangle36">
      <path
         class="cls-3"
         d="m 291.22,323.95 v 0 l -85.79,-1.37 a 0.23,0.23 0 0 1 -0.22,-0.32 l 20,-52 a 0.23,0.23 0 0 1 0.37,-0.1 l 65.77,53.37 a 0.23,0.23 0 0 1 -0.15,0.42 z m -85.45,-1.83 84.77,1.35 -65,-52.74 z"
         transform="translate(-142.83,97.68)"
         id="path4165"
         inkscape:connector-curvature="0"
         style="fill:#c4c4c4" />
    </g>
    <g
       id="triangle36-19"
       data-name="triangle36">
      <path
         class="cls-3"
         d="m 230.1,338.57 h 0.9 l -24.72,-16 84.08,1.34 -26.89,14.81 h 1 l 26.92,-14.83 a 0.23,0.23 0 0 0 -0.11,-0.44 l -85.79,-1.37 v 0 a 0.23,0.23 0 0 0 -0.13,0.43 z"
         transform="translate(-142.83,97.68)"
         id="path4168"
         inkscape:connector-curvature="0"
         style="fill:#c4c4c4" />
    </g>
    <g
       id="triangle36-20"
       data-name="triangle36">
      <path
         class="cls-3"
         d="m 264.41,338.75 26.15,-14.4 -8.9,14.49 h 0.55 l 9.22,-15 a 0.24,0.24 0 0 0 0,-0.28 0.23,0.23 0 0 0 -0.28,0 l -27.66,15.24 z"
         transform="translate(-142.83,97.68)"
         id="path4171"
         inkscape:connector-curvature="0"
         style="fill:#c4c4c4" />
    </g>
    <g
       id="triangle36-21"
       data-name="triangle36">
      <path
         class="cls-3"
         d="m 282.21,338.84 9.12,-14.84 52,15.16 H 345 l -53.7,-15.67 a 0.23,0.23 0 0 0 -0.27,0.1 l -9.37,15.25 z"
         transform="translate(-142.83,97.68)"
         id="path4174"
         inkscape:connector-curvature="0"
         style="fill:#c4c4c4" />
    </g>
    <g
       id="triangle36-22"
       data-name="triangle36">
      <path
         class="cls-3"
         d="m 519.6,201.6 h -0.09 l -99.17,-39.82 a 0.23,0.23 0 0 1 -0.06,-0.4 L 470.49,120 a 0.23,0.23 0 0 1 0.19,-0.05 0.23,0.23 0 0 1 0.16,0.11 l 49,81.2 a 0.23,0.23 0 0 1 -0.2,0.36 z M 420.89,161.48 519,200.89 470.54,120.53 Z"
         transform="translate(-142.83,97.68)"
         id="path4177"
         inkscape:connector-curvature="0"
         style="fill:#c4c4c4" />
    </g>
    <g
       id="triangle36-23"
       data-name="triangle36">
      <path
         class="cls-3"
         d="m 519.6,201.6 a 0.23,0.23 0 0 1 -0.2,-0.11 l -49,-81.2 a 0.24,0.24 0 0 1 0,-0.19 0.23,0.23 0 0 1 0.13,-0.14 l 41.14,-18.4 a 0.23,0.23 0 0 1 0.33,0.2 l 7.82,99.59 a 0.23,0.23 0 0 1 -0.16,0.24 z m -48.6,-81.32 48.31,80.12 -7.72,-98.27 z"
         transform="translate(-142.83,97.68)"
         id="path4180"
         inkscape:connector-curvature="0"
         style="fill:#c4c4c4" />
    </g>
    <g
       id="triangle36-24"
       data-name="triangle36">
      <path
         class="cls-3"
         d="m 519.6,201.6 v 0 a 0.23,0.23 0 0 1 -0.21,-0.22 l -7.82,-99.59 a 0.23,0.23 0 0 1 0.23,-0.25 l 34.26,-0.29 a 0.33,0.33 0 0 1 0.19,0.09 0.24,0.24 0 0 1 0,0.2 l -26.43,99.88 a 0.23,0.23 0 0 1 -0.22,0.18 z M 512,102 l 7.7,98 26,-98.25 z"
         transform="translate(-142.83,97.68)"
         id="path4183"
         inkscape:connector-curvature="0"
         style="fill:#c4c4c4" />
    </g>
    <g
       id="triangle36-25"
       data-name="triangle36">
      <path
         class="cls-3"
         d="m 600.87,205.42 -50.49,19.33 -30.17,-23.21 80.73,-8.65 v -0.47 l -81.36,8.72 a 0.23,0.23 0 0 0 -0.12,0.42 l 30.74,23.64 a 0.23,0.23 0 0 0 0.14,0 h 0.09 l 50.45,-19.32 z"
         transform="translate(-142.83,97.68)"
         id="path4186"
         inkscape:connector-curvature="0"
         style="fill:#c4c4c4" />
    </g>
    <g
       id="triangle36-26"
       data-name="triangle36">
      <path
         class="cls-3"
         d="m 511.78,102 a 0.23,0.23 0 0 1 -0.16,-0.4 L 545.73,69 a 0.23,0.23 0 0 1 0.4,0.17 l 0.14,32.33 a 0.23,0.23 0 0 1 -0.23,0.24 l -34.26,0.29 z m 33.88,-32.3 -33.29,31.84 33.43,-0.28 z"
         transform="translate(-142.83,97.68)"
         id="path4189"
         inkscape:connector-curvature="0"
         style="fill:#c4c4c4" />
    </g>
    <g
       id="triangle36-27"
       data-name="triangle36">
      <path
         class="cls-3"
         d="M 601.71,41.87 546.13,68.77 546,-79.72 602,-6.34 v -0.77 l -56,-73.45 a 0.23,0.23 0 0 0 -0.26,-0.08 0.23,0.23 0 0 0 -0.16,0.22 l 0.16,149.56 a 0.23,0.23 0 0 0 0.23,0.23 h 0.1 l 55.71,-27 z"
         transform="translate(-142.83,97.68)"
         id="path4192"
         inkscape:connector-curvature="0"
         style="fill:#c4c4c4" />
    </g>
    <g
       id="triangle36-28"
       data-name="triangle36">
      <path
         class="cls-3"
         d="m 546,101.72 a 0.23,0.23 0 0 1 -0.23,-0.23 l -0.14,-32.33 a 0.24,0.24 0 0 1 0.08,-0.18 0.24,0.24 0 0 1 0.18,-0.06 l 45,5.11 a 0.23,0.23 0 0 1 0.1,0.43 l -44.89,27.22 a 0.23,0.23 0 0 1 -0.1,0.04 z m 0.09,-32.3 0.14,31.65 43.95,-26.65 z"
         transform="translate(-142.83,97.68)"
         id="path4195"
         inkscape:connector-curvature="0"
         style="fill:#c4c4c4" />
    </g>
    <g
       id="triangle36-29"
       data-name="triangle36">
      <path
         class="cls-3"
         d="m 601.61,61.2 -10.79,12.8 -44.1,-5 55,-26.61 v -0.52 l -55.93,27.07 a 0.23,0.23 0 0 0 0.08,0.44 l 45,5.11 v 0 a 0.23,0.23 0 0 0 0.18,-0.08 l 10.51,-12.49 z"
         transform="translate(-142.83,97.68)"
         id="path4198"
         inkscape:connector-curvature="0"
         style="fill:#c4c4c4" />
    </g>
    <g
       id="triangle36-30"
       data-name="triangle36">
      <path
         class="cls-3"
         d="M 601.52,79.27 591.3,74.19 601.61,61.93 V 61.2 l -10.87,12.91 a 0.23,0.23 0 0 0 0.07,0.36 l 10.7,5.32 z"
         transform="translate(-142.83,97.68)"
         id="path4201"
         inkscape:connector-curvature="0"
         style="fill:#c4c4c4" />
    </g>
    <g
       id="triangle36-31"
       data-name="triangle36">
      <path
         class="cls-3"
         d="m 601.5,82.21 -8.59,-6.69 8.61,4.28 V 79.28 L 591,74.05 a 0.23584953,0.23584953 0 0 0 -0.25,0.4 l 10.75,8.35 z"
         transform="translate(-142.83,97.68)"
         id="path4204"
         inkscape:connector-curvature="0"
         style="fill:#c4c4c4" />
    </g>
    <g
       id="triangle36-32"
       data-name="triangle36">
      <path
         class="cls-3"
         d="m 291.16,323.94 52.13,15.21 H 345 l -53.13,-15.51 94.25,-48.52 -22.77,64.12 h 0.5 l 22.91,-64.52 a 0.23,0.23 0 0 0 -0.33,-0.29 l -95.3,49.06 a 0.23,0.23 0 0 0 0,0.43 z"
         transform="translate(-142.83,97.68)"
         id="path4207"
         inkscape:connector-curvature="0"
         style="fill:#c4c4c4" />
    </g>
    <g
       id="triangle36-33"
       data-name="triangle36">
      <path
         class="cls-3"
         d="m 363.83,339.26 22.83,-64.26 61.81,30 -76.14,34.3 h 1.13 l 75.66,-34.11 a 0.23,0.23 0 0 0 0,-0.43 l -62.49,-30.32 a 0.24,0.24 0 0 0 -0.19,0 0.24,0.24 0 0 0 -0.13,0.14 l -23,64.68 z"
         transform="translate(-142.83,97.68)"
         id="path4210"
         inkscape:connector-curvature="0"
         style="fill:#c4c4c4" />
    </g>
    <g
       id="triangle36-34"
       data-name="triangle36">
      <path
         class="cls-3"
         d="m 390.61,200.94 a 0.24,0.24 0 0 1 -0.14,0 L 363.1,180.29 a 0.2326478,0.2326478 0 0 1 0.22,-0.41 l 43.43,15.81 a 0.23,0.23 0 0 1 0,0.45 l -16.07,4.8 z m -26,-20.09 26,19.59 15.28,-4.57 z"
         transform="translate(-142.83,97.68)"
         id="path4213"
         inkscape:connector-curvature="0"
         style="fill:#c4c4c4" />
    </g>
    <g
       id="triangle36-35"
       data-name="triangle36">
      <path
         class="cls-3"
         d="m 406.68,196.14 h -0.08 l -43.43,-15.81 a 0.23,0.23 0 0 1 0,-0.44 l 57.19,-18.55 a 0.23,0.23 0 0 1 0.24,0.06 0.23,0.23 0 0 1 0,0.25 L 406.9,196 a 0.23,0.23 0 0 1 -0.22,0.14 z m -42.71,-16 42.58,15.49 13.45,-33.7 z"
         transform="translate(-142.83,97.68)"
         id="path4216"
         inkscape:connector-curvature="0"
         style="fill:#c4c4c4" />
    </g>
    <g
       id="triangle36-36"
       data-name="triangle36">
      <path
         class="cls-3"
         d="m 386.53,274.89 v 0 a 0.23,0.23 0 0 1 -0.2,-0.24 l 4.08,-73.95 a 0.23,0.23 0 0 1 0.17,-0.21 l 16.07,-4.8 a 0.23,0.23 0 0 1 0.29,0.28 l -20.15,78.75 a 0.23,0.23 0 0 1 -0.26,0.17 z m 4.31,-74 -3.94,71.39 19.46,-76 z"
         transform="translate(-142.83,97.68)"
         id="path4219"
         inkscape:connector-curvature="0"
         style="fill:#c4c4c4" />
    </g>
    <g
       id="triangle36-37"
       data-name="triangle36">
      <path
         class="cls-3"
         d="m 519.6,201.6 v 0 l -112.92,-5.46 a 0.23,0.23 0 0 1 -0.21,-0.32 l 13.75,-34.35 a 0.23,0.23 0 0 1 0.31,-0.13 l 99.17,39.82 a 0.23,0.23 0 0 1 -0.09,0.45 z m -112.6,-5.91 111.2,5.38 -97.66,-39.21 z"
         transform="translate(-142.83,97.68)"
         id="path4222"
         inkscape:connector-curvature="0"
         style="fill:#c4c4c4" />
    </g>
    <g
       id="triangle36-38"
       data-name="triangle36">
      <path
         class="cls-3"
         d="m 420.43,161.79 h -0.09 a 0.23,0.23 0 0 1 -0.15,-0.19 L 408.62,72 A 0.23,0.23 0 0 1 409,71.79 L 470.78,120 a 0.23,0.23 0 0 1 0,0.37 l -50.21,41.38 a 0.23,0.23 0 0 1 -0.14,0.04 z m -11.27,-89.31 11.45,88.62 49.65,-40.92 z"
         transform="translate(-142.83,97.68)"
         id="path4225"
         inkscape:connector-curvature="0"
         style="fill:#c4c4c4" />
    </g>
    <g
       id="triangle36-39"
       data-name="triangle36">
      <path
         class="cls-3"
         d="m 470.64,120.41 a 0.23,0.23 0 0 1 -0.14,0 L 408.71,72.12 a 0.23,0.23 0 0 1 0,-0.4 l 53.82,-24.15 a 0.23,0.23 0 0 1 0.33,0.19 l 8,72.38 a 0.23,0.23 0 0 1 -0.23,0.26 z M 409.31,72 l 61,47.65 -7.87,-71.51 z"
         transform="translate(-142.83,97.68)"
         id="path4228"
         inkscape:connector-curvature="0"
         style="fill:#c4c4c4" />
    </g>
    <g
       id="triangle36-40"
       data-name="triangle36">
      <path
         class="cls-3"
         d="m 462.67,48 v 0 a 0.23,0.23 0 0 1 -0.19,-0.18 L 436.76,-58.82 a 0.24,0.24 0 0 1 0,-0.18 0.24,0.24 0 0 1 0.15,-0.1 l 108.77,-21.54 a 0.24,0.24 0 0 1 0.24,0.1 0.23,0.23 0 0 1 0,0.26 l -83.05,128.2 a 0.23,0.23 0 0 1 -0.2,0.08 z m -25.4,-106.69 25.5,105.89 82.46,-127.28 z"
         transform="translate(-142.83,97.68)"
         id="path4231"
         inkscape:connector-curvature="0"
         style="fill:#c4c4c4" />
    </g>
    <g
       id="triangle36-41"
       data-name="triangle36">
      <path
         class="cls-3"
         d="m 470.64,120.41 a 0.23,0.23 0 0 1 -0.23,-0.21 l -8,-72.38 a 0.23,0.23 0 0 1 0.41,-0.18 l 49.1,54 a 0.23,0.23 0 0 1 -0.08,0.37 l -41.14,18.4 z M 463,48.48 l 7.85,71.34 40.55,-18.13 z"
         transform="translate(-142.83,97.68)"
         id="path4234"
         inkscape:connector-curvature="0"
         style="fill:#c4c4c4" />
    </g>
    <g
       id="triangle36-42"
       data-name="triangle36">
      <path
         class="cls-3"
         d="m 511.78,102 v 0 a 0.23,0.23 0 0 1 -0.17,-0.08 l -49.1,-54 a 0.23,0.23 0 0 1 0.23,-0.39 l 83.22,21.36 a 0.23,0.23 0 0 1 0.1,0.4 l -34.11,32.62 a 0.23,0.23 0 0 1 -0.17,0.09 z m -48.4,-53.79 48.41,53.22 33.63,-32.16 z"
         transform="translate(-142.83,97.68)"
         id="path4237"
         inkscape:connector-curvature="0"
         style="fill:#c4c4c4" />
    </g>
    <g
       id="triangle36-43"
       data-name="triangle36">
      <path
         class="cls-3"
         d="m 545.89,69.38 h -0.06 L 462.62,48 a 0.23,0.23 0 0 1 -0.14,-0.36 l 83.05,-128.18 a 0.23,0.23 0 0 1 0.26,-0.1 0.23,0.23 0 0 1 0.17,0.23 l 0.16,149.56 a 0.23,0.23 0 0 1 -0.24,0.23 z m -82.84,-21.73 82.61,21.2 -0.16,-148.47 z"
         transform="translate(-142.83,97.68)"
         id="path4240"
         inkscape:connector-curvature="0"
         style="fill:#c4c4c4" />
    </g>
    <g
       id="triangle36-44"
       data-name="triangle36">
      <path
         class="cls-3"
         d="m 386.53,274.89 a 0.23,0.23 0 0 1 -0.23,-0.29 l 20.15,-78.75 a 0.23,0.23 0 0 1 0.36,-0.14 l 85.49,59.05 a 0.23,0.23 0 0 1 -0.09,0.42 l -105.64,19.7 z m 20.3,-78.6 -20,78.07 104.73,-19.53 z"
         transform="translate(-142.83,97.68)"
         id="path4243"
         inkscape:connector-curvature="0"
         style="fill:#c4c4c4" />
    </g>
    <g
       id="triangle36-45"
       data-name="triangle36">
      <path
         class="cls-3"
         d="m 449,305.21 h -0.1 l -62.49,-30.32 a 0.23,0.23 0 0 1 0.06,-0.44 l 105.64,-19.7 a 0.23,0.23 0 0 1 0.22,0.38 l -43.15,50 a 0.23,0.23 0 0 1 -0.18,0.08 z m -61.75,-30.46 61.75,29.94 42.6,-49.38 z"
         transform="translate(-142.83,97.68)"
         id="path4246"
         inkscape:connector-curvature="0"
         style="fill:#c4c4c4" />
    </g>
    <g
       id="triangle36-46"
       data-name="triangle36">
      <path
         class="cls-3"
         d="m 492.17,255.19 a 0.24,0.24 0 0 1 -0.13,0 L 406.55,196.1 a 0.24,0.24 0 0 1 -0.09,-0.27 0.24,0.24 0 0 1 0.23,-0.16 l 112.92,5.46 a 0.23,0.23 0 0 1 0.2,0.34 l -27.43,53.59 a 0.24,0.24 0 0 1 -0.15,0.12 z m -84.68,-59 84.6,58.43 27.14,-53 z"
         transform="translate(-142.83,97.68)"
         id="path4249"
         inkscape:connector-curvature="0"
         style="fill:#c4c4c4" />
    </g>
    <g
       id="triangle36-47"
       data-name="triangle36">
      <path
         class="cls-3"
         d="m 478.28,315.6 h -0.08 l -29.26,-10.4 a 0.23,0.23 0 0 1 -0.1,-0.37 l 43.15,-50 a 0.23032586,0.23032586 0 0 1 0.41,0.21 l -13.89,60.41 a 0.24,0.24 0 0 1 -0.12,0.15 0.24,0.24 0 0 1 -0.11,0 z m -28.86,-10.72 28.69,10.18 13.62,-59.23 z"
         transform="translate(-142.83,97.68)"
         id="path4252"
         inkscape:connector-curvature="0"
         style="fill:#c4c4c4" />
    </g>
    <g
       id="triangle36-48"
       data-name="triangle36">
      <path
         class="cls-3"
         d="m 478.28,315.6 a 0.24,0.24 0 0 1 -0.23,-0.29 l 13.89,-60.41 a 0.24,0.24 0 0 1 0.16,-0.17 0.24,0.24 0 0 1 0.23,0.06 l 56.2,54.21 a 0.23,0.23 0 0 1 -0.14,0.4 l -70.09,6.2 z m 14,-60.18 -13.69,59.68 69.25,-6.1 z"
         transform="translate(-142.83,97.68)"
         id="path4255"
         inkscape:connector-curvature="0"
         style="fill:#c4c4c4" />
    </g>
    <g
       id="triangle36-49"
       data-name="triangle36">
      <path
         class="cls-3"
         d="m 492.17,255.19 a 0.23,0.23 0 0 1 -0.21,-0.34 l 27.43,-53.59 a 0.23,0.23 0 0 1 0.35,-0.08 l 30.74,23.65 a 0.23,0.23 0 0 1 0,0.39 l -58.17,29.94 z m 27.51,-53.47 -27,52.69 57.23,-29.41 z"
         transform="translate(-142.83,97.68)"
         id="path4258"
         inkscape:connector-curvature="0"
         style="fill:#c4c4c4" />
    </g>
    <g
       id="triangle36-50"
       data-name="triangle36">
      <path
         class="cls-3"
         d="m 548.37,309.44 a 0.24,0.24 0 0 1 -0.16,-0.07 L 492,255.13 a 0.23,0.23 0 0 1 0.1,-0.39 l 80.36,-24 a 0.23,0.23 0 0 1 0.29,0.29 l -24.16,78.26 a 0.23,0.23 0 0 1 -0.17,0.16 z m -55.75,-54.37 55.64,53.71 23.92,-77.48 z"
         transform="translate(-142.83,97.68)"
         id="path4261"
         inkscape:connector-curvature="0"
         style="fill:#c4c4c4" />
    </g>
    <g
       id="triangle36-51"
       data-name="triangle36">
      <path
         class="cls-3"
         d="m 492.17,255.19 a 0.23,0.23 0 0 1 -0.11,-0.44 l 58.17,-29.94 a 0.24,0.24 0 0 1 0.17,0 l 22.19,5.93 a 0.23,0.23 0 0 1 0,0.45 l -80.36,24 z m 58.2,-29.93 -55.84,28.74 77.14,-23 z"
         transform="translate(-142.83,97.68)"
         id="path4264"
         inkscape:connector-curvature="0"
         style="fill:#c4c4c4" />
    </g>
    <g
       id="triangle36-52"
       data-name="triangle36">
      <path
         class="cls-3"
         d="m 145.14,285.06 a 0.23,0.23 0 0 1 -0.12,-0.44 l 66.55,-39 a 0.24,0.24 0 0 1 0.18,0 0.23,0.23 0 0 1 0.14,0.11 l 13.76,24.49 a 0.23,0.23 0 0 1 -0.16,0.35 l -80.31,14.48 z m 66.46,-38.88 -65.2,38.18 78.69,-14.18 z"
         transform="translate(-142.83,97.68)"
         id="path4267"
         inkscape:connector-curvature="0"
         style="fill:#c4c4c4" />
    </g>
    <g
       id="triangle36-53"
       data-name="triangle36">
      <path
         class="cls-3"
         d="m 225.45,270.58 v 0 a 0.24,0.24 0 0 1 -0.18,-0.12 L 211.49,246 a 0.23,0.23 0 0 1 0.16,-0.35 l 41.09,-8.16 a 0.23,0.23 0 0 1 0.23,0.38 l -27.32,32.66 a 0.23,0.23 0 0 1 -0.2,0.05 z M 212.06,246 225.5,269.91 252.17,238 Z"
         transform="translate(-142.83,97.68)"
         id="path4270"
         inkscape:connector-curvature="0"
         style="fill:#c4c4c4" />
    </g>
    <g
       id="triangle36-54"
       data-name="triangle36">
      <path
         class="cls-3"
         d="m 341.72,105.56 h -0.06 a 0.23,0.23 0 0 1 -0.17,-0.29 L 354.4,55.55 a 0.23286262,0.23286262 0 1 1 0.45,0.12 l -12.91,49.71 a 0.23,0.23 0 0 1 -0.22,0.18 z"
         transform="translate(-142.83,97.68)"
         id="path4273"
         inkscape:connector-curvature="0"
         style="fill:#c4c4c4" />
    </g>
    <g
       id="triangle36-55"
       data-name="triangle36">
      <path
         class="cls-3"
         d="m 341.72,105.56 a 0.23,0.23 0 0 1 -0.23,-0.29 L 354.4,55.55 a 0.23,0.23 0 0 1 0.11,-0.15 0.24,0.24 0 0 1 0.18,0 l 54.23,16.33 a 0.23,0.23 0 0 1 0,0.43 l -67.14,33.38 z m 13.07,-49.65 -12.72,49 L 408.22,72 Z"
         transform="translate(-142.83,97.68)"
         id="path4276"
         inkscape:connector-curvature="0"
         style="fill:#c4c4c4" />
    </g>
    <g
       id="triangle36-56"
       data-name="triangle36">
      <path
         class="cls-3"
         d="m 360.84,168.69 a 0.23,0.23 0 0 1 -0.22,-0.17 L 341.5,105.39 a 0.23,0.23 0 0 1 0.36,-0.26 l 78.72,56.23 a 0.23,0.23 0 0 1 -0.11,0.42 l -59.6,6.91 z m -18.69,-62.78 18.85,62.29 58.8,-6.81 z"
         transform="translate(-142.83,97.68)"
         id="path4279"
         inkscape:connector-curvature="0"
         style="fill:#c4c4c4" />
    </g>
    <g
       id="triangle36-57"
       data-name="triangle36">
      <path
         class="cls-3"
         d="m 420.43,161.79 a 0.23,0.23 0 0 1 -0.13,0 l -78.72,-56.23 a 0.23,0.23 0 0 1 0,-0.4 l 67.14,-33.38 a 0.23,0.23 0 0 1 0.21,0 0.23,0.23 0 0 1 0.12,0.18 l 11.58,89.61 a 0.23,0.23 0 0 1 -0.23,0.26 z m -78.26,-56.43 78,55.69 -11.51,-88.75 z"
         transform="translate(-142.83,97.68)"
         id="path4282"
         inkscape:connector-curvature="0"
         style="fill:#c4c4c4" />
    </g>
    <g
       id="triangle36-58"
       data-name="triangle36">
      <path
         class="cls-3"
         d="m 319.87,212.91 a 0.23,0.23 0 0 1 -0.17,-0.39 l 41,-44.22 a 0.23,0.23 0 0 1 0.4,0.11 l 2.41,11.64 a 0.23,0.23 0 0 1 -0.09,0.24 L 320,212.86 a 0.24,0.24 0 0 1 -0.13,0.05 z m 40.83,-44 -38.88,42 L 363,180 Z"
         transform="translate(-142.83,97.68)"
         id="path4285"
         inkscape:connector-curvature="0"
         style="fill:#c4c4c4" />
    </g>
    <g
       id="triangle36-59"
       data-name="triangle36">
      <path
         class="cls-3"
         d="m 319.87,212.91 a 0.23,0.23 0 0 1 -0.14,-0.42 l 43.37,-32.58 a 0.24,0.24 0 0 1 0.28,0 l 27.36,20.61 a 0.23,0.23 0 0 1 -0.1,0.42 l -70.73,12 z m 43.37,-32.52 -42.46,31.89 69.22,-11.71 z"
         transform="translate(-142.83,97.68)"
         id="path4288"
         inkscape:connector-curvature="0"
         style="fill:#c4c4c4" />
    </g>
    <g
       id="triangle36-60"
       data-name="triangle36">
      <path
         class="cls-3"
         d="m 386.53,274.89 a 0.24,0.24 0 0 1 -0.16,-0.06 l -66.65,-62 a 0.23,0.23 0 0 1 0.12,-0.4 l 70.73,-12 a 0.23,0.23 0 0 1 0.27,0.24 l -4.08,73.95 a 0.23,0.23 0 0 1 -0.15,0.2 z m -66.14,-62.06 65.94,61.32 4,-73.15 z"
         transform="translate(-142.83,97.68)"
         id="path4291"
         inkscape:connector-curvature="0"
         style="fill:#c4c4c4" />
    </g>
    <g
       id="triangle36-61"
       data-name="triangle36">
      <path
         class="cls-3"
         d="m 601.16,149.76 -81.16,51.09 26.21,-99 55.09,23.27 v -0.51 l -55.16,-23.3 a 0.24,0.24 0 0 0 -0.32,0.16 l -26.43,99.88 a 0.23,0.23 0 0 0 0.35,0.26 l 81.43,-51.25 z"
         transform="translate(-142.83,97.68)"
         id="path4294"
         inkscape:connector-curvature="0"
         style="fill:#c4c4c4" />
    </g>
    <g
       id="triangle36-62"
       data-name="triangle36">
      <path
         class="cls-3"
         d="m 600.94,192.41 -80.36,8.59 80.57,-50.71 v -0.56 l -81.68,51.41 a 0.23,0.23 0 0 0 0.12,0.43 v 0 l 81.31,-8.71 z"
         transform="translate(-142.83,97.68)"
         id="path4297"
         inkscape:connector-curvature="0"
         style="fill:#c4c4c4" />
    </g>
    <g
       id="triangle36-63"
       data-name="triangle36">
      <path
         class="cls-3"
         d="m 601.29,124.57 -53.9,-22.77 54,3.18 v -0.47 L 546,101.25 a 0.22,0.22 0 0 0 -0.24,0.18 0.23,0.23 0 0 0 0.14,0.27 l 55.34,23.38 z"
         transform="translate(-142.83,97.68)"
         id="path4300"
         inkscape:connector-curvature="0"
         style="fill:#c4c4c4" />
    </g>
    <g
       id="triangle36-64"
       data-name="triangle36">
      <path
         class="cls-3"
         d="m 225.45,270.58 a 0.23,0.23 0 0 1 -0.18,-0.39 l 27.32,-32.66 a 0.23,0.23 0 0 1 0.18,-0.08 l 54,-0.19 v 0 a 0.23,0.23 0 0 1 0.09,0.45 l -81.33,32.85 z m 27.44,-32.66 -26.65,31.85 79.33,-32 z"
         transform="translate(-142.83,97.68)"
         id="path4303"
         inkscape:connector-curvature="0"
         style="fill:#c4c4c4" />
    </g>
    <g
       id="triangle36-65"
       data-name="triangle36">
      <path
         class="cls-3"
         d="m 291.22,323.95 a 0.24,0.24 0 0 1 -0.15,-0.05 L 225.3,270.53 a 0.23,0.23 0 0 1 0.06,-0.4 l 81.33,-32.85 a 0.24,0.24 0 0 1 0.24,0 0.24,0.24 0 0 1 0.08,0.22 l -15.56,86.22 a 0.23,0.23 0 0 1 -0.15,0.18 z m -65.31,-53.54 65.15,52.87 15.42,-85.41 z"
         transform="translate(-142.83,97.68)"
         id="path4306"
         inkscape:connector-curvature="0"
         style="fill:#c4c4c4" />
    </g>
    <g
       id="triangle36-66"
       data-name="triangle36">
      <path
         class="cls-3"
         d="m 252.78,237.92 a 0.23,0.23 0 0 1 -0.08,-0.45 l 67.1,-25 a 0.23,0.23 0 0 1 0.29,0.33 L 307,237.61 a 0.23,0.23 0 0 1 -0.21,0.13 l -54,0.19 z m 66.6,-24.81 -65.29,24.34 52.55,-0.18 z"
         transform="translate(-142.83,97.68)"
         id="path4309"
         inkscape:connector-curvature="0"
         style="fill:#c4c4c4" />
    </g>
    <g
       id="triangle36-67"
       data-name="triangle36">
      <path
         class="cls-3"
         d="m 291.22,323.95 a 0.23,0.23 0 0 1 -0.23,-0.28 l 15.56,-86.22 a 0.23,0.23 0 0 1 0.12,-0.17 0.24,0.24 0 0 1 0.21,0 l 79.74,37.16 a 0.23,0.23 0 0 1 0,0.42 l -95.3,49.06 z M 307,237.84 291.58,323.29 386,274.67 Z"
         transform="translate(-142.83,97.68)"
         id="path4312"
         inkscape:connector-curvature="0"
         style="fill:#c4c4c4" />
    </g>
    <g
       id="triangle36-68"
       data-name="triangle36">
      <path
         class="cls-3"
         d="m 386.53,274.89 h -0.1 l -79.74,-37.16 a 0.23,0.23 0 0 1 -0.11,-0.32 l 13.09,-24.82 a 0.23,0.23 0 0 1 0.37,-0.06 l 66.65,62 a 0.23,0.23 0 0 1 -0.16,0.41 z m -79.42,-37.5 78.17,36.43 -65.34,-60.76 z"
         transform="translate(-142.83,97.68)"
         id="path4315"
         inkscape:connector-curvature="0"
         style="fill:#c4c4c4" />
    </g>
    <g
       id="triangle36-69"
       data-name="triangle36">
      <path
         class="cls-3"
         d="M 600.69,241.18 573.08,230.9 600.83,215 v -0.54 l -28.41,16.31 a 0.23,0.23 0 0 0 0,0.42 l 28.24,10.52 z"
         transform="translate(-142.83,97.68)"
         id="path4318"
         inkscape:connector-curvature="0"
         style="fill:#c4c4c4" />
    </g>
    <g
       id="triangle36-70"
       data-name="triangle36">
      <path
         class="cls-3"
         d="m 354.62,55.85 a 0.23,0.23 0 0 1 -0.13,-0.43 l 54.19,-36.24 a 0.23436083,0.23436083 0 1 1 0.26,0.39 l -54.19,36.24 a 0.23,0.23 0 0 1 -0.13,0.04 z"
         transform="translate(-142.83,97.68)"
         id="path4321"
         inkscape:connector-curvature="0"
         style="fill:#c4c4c4" />
    </g>
    <g
       id="triangle36-71"
       data-name="triangle36">
      <path
         class="cls-3"
         d="m 408.85,72.17 h -0.07 L 354.56,55.84 a 0.23,0.23 0 0 1 -0.06,-0.42 l 54.19,-36.24 a 0.23,0.23 0 0 1 0.37,0.19 v 52.57 a 0.23,0.23 0 0 1 -0.24,0.23 z M 355.17,55.53 408.62,71.62 V 19.81 Z"
         transform="translate(-142.83,97.68)"
         id="path4324"
         inkscape:connector-curvature="0"
         style="fill:#c4c4c4" />
    </g>
    <g
       id="triangle36-72"
       data-name="triangle36">
      <path
         class="cls-3"
         d="m 408.85,72.17 a 0.23,0.23 0 0 1 -0.23,-0.23 V 19.37 a 0.23,0.23 0 0 1 0.34,-0.21 l 53.86,28.42 a 0.23,0.23 0 0 1 0,0.42 L 409,72.15 Z m 0.2,-52.41 v 51.82 l 53.05,-23.8 z"
         transform="translate(-142.83,97.68)"
         id="path4327"
         inkscape:connector-curvature="0"
         style="fill:#c4c4c4" />
    </g>
    <g
       id="triangle36-73"
       data-name="triangle36">
      <path
         class="cls-3"
         d="m 462.67,48 h -0.11 L 408.7,19.58 a 0.23,0.23 0 0 1 -0.11,-0.29 L 436.77,-59 a 0.23,0.23 0 0 1 0.23,-0.15 0.23,0.23 0 0 1 0.22,0.18 L 462.9,47.74 a 0.23,0.23 0 0 1 -0.23,0.29 z M 409.1,19.26 462.32,47.34 436.94,-58.06 Z"
         transform="translate(-142.83,97.68)"
         id="path4330"
         inkscape:connector-curvature="0"
         style="fill:#c4c4c4" />
    </g>
    <g
       id="triangle36-74"
       data-name="triangle36">
      <path
         class="cls-3"
         d="m 600.53,273.72 -51.74,34.93 23.83,-77.2 27.93,35.94 v -0.76 L 572.72,230.8 a 0.23,0.23 0 0 0 -0.41,0.07 l -24.16,78.26 a 0.23,0.23 0 0 0 0.36,0.26 l 52,-35.12 z"
         transform="translate(-142.83,97.68)"
         id="path4333"
         inkscape:connector-curvature="0"
         style="fill:#c4c4c4" />
    </g>
    <g
       id="triangle36-75"
       data-name="triangle36">
      <path
         class="cls-3"
         d="m 600.28,321.86 -51.34,-12.75 51.58,-34.82 v -0.57 L 548.24,309 a 0.23,0.23 0 0 0 0.07,0.42 l 52,12.91 z"
         transform="translate(-142.83,97.68)"
         id="path4336"
         inkscape:connector-curvature="0"
         style="fill:#c4c4c4" />
    </g>
    <g
       id="triangle36-76"
       data-name="triangle36">
      <path
         class="cls-3"
         d="m 600.56,266.63 -27.34,-35.18 27.47,10.23 v -0.5 l -28.08,-10.46 a 0.23,0.23 0 0 0 -0.27,0.36 l 28.21,36.3 z"
         transform="translate(-142.83,97.68)"
         id="path4339"
         inkscape:connector-curvature="0"
         style="fill:#c4c4c4" />
    </g>
    <circle
       class="cls-3"
       cx="561.22998"
       cy="-94.290001"
       r="2.45"
       transform="rotate(-89.71,538.89372,26.336483)"
       id="circle4342"
       style="fill:#c4c4c4" />
    <path
       class="cls-4"
       d="m 561.24,-96.74 a 2.45,2.45 0 0 1 2.43,2.46 2.45,2.45 0 0 1 -2.46,2.43 2.45,2.45 0 0 1 -2.43,-2.46 2.45,2.45 0 0 1 2.46,-2.43 m 0,-0.94 a 3.39,3.39 0 0 0 -3.4,3.37 3.39,3.39 0 0 0 3.37,3.4 3.39,3.39 0 0 0 3.4,-3.37 3.39,3.39 0 0 0 -3.37,-3.4 z"
       transform="translate(-142.83,97.68)"
       id="path4344"
       inkscape:connector-curvature="0"
       style="fill:#231f20" />
    <circle
       class="cls-3"
       cx="177.14"
       cy="304.29001"
       r="1.51"
       transform="rotate(-89.71,154.80033,424.90226)"
       id="circle4346"
       style="fill:#c4c4c4" />
    <path
       class="cls-4"
       d="m 177.15,302.78 a 1.51,1.51 0 1 1 -1.52,1.5 1.51,1.51 0 0 1 1.52,-1.5 m 0,-0.94 a 2.45,2.45 0 1 0 2.44,2.46 2.45,2.45 0 0 0 -2.44,-2.46 z"
       transform="translate(-142.83,97.68)"
       id="path4348"
       inkscape:connector-curvature="0"
       style="fill:#231f20" />
    <circle
       class="cls-3"
       cx="205.44"
       cy="322.34"
       r="2.0899999"
       transform="rotate(-89.71,183.10273,442.96164)"
       id="circle4350"
       style="fill:#c4c4c4" />
    <path
       class="cls-4"
       d="m 205.45,320.25 a 2.09,2.09 0 1 1 -2.1,2.08 2.09,2.09 0 0 1 2.1,-2.08 m 0,-0.94 a 3,3 0 1 0 3,3 3,3 0 0 0 -3,-3 z"
       transform="translate(-142.83,97.68)"
       id="path4352"
       inkscape:connector-curvature="0"
       style="fill:#231f20" />
    <circle
       class="cls-3"
       cx="590.91998"
       cy="74.260002"
       r="1.8099999"
       transform="rotate(-89.71,568.57953,194.8942)"
       id="circle4354"
       style="fill:#c4c4c4" />
    <path
       class="cls-4"
       d="m 590.93,72.45 a 1.81,1.81 0 1 1 -1.82,1.8 1.81,1.81 0 0 1 1.82,-1.8 m 0,-0.94 a 2.75,2.75 0 1 0 2.74,2.77 2.75,2.75 0 0 0 -2.74,-2.77 z"
       transform="translate(-142.83,97.68)"
       id="path4356"
       inkscape:connector-curvature="0"
       style="fill:#231f20" />
    <circle
       class="cls-3"
       cx="470.64001"
       cy="120.17"
       r="3.1099999"
       transform="rotate(-89.71,448.30023,240.79427)"
       id="circle4358"
       style="fill:#c4c4c4" />
    <path
       class="cls-4"
       d="m 470.65,117.06 a 3.11,3.11 0 1 1 -3.12,3.09 3.11,3.11 0 0 1 3.12,-3.09 m 0,-0.94 a 4,4 0 1 0 4,4.07 4.05,4.05 0 0 0 -4,-4.07 z"
       transform="translate(-142.83,97.68)"
       id="path4360"
       inkscape:connector-curvature="0"
       style="fill:#231f20" />
    <circle
       class="cls-3"
       cx="511.78"
       cy="101.77"
       r="1.33"
       transform="rotate(-89.71,489.43316,222.39877)"
       id="circle4362"
       style="fill:#c4c4c4" />
    <path
       class="cls-4"
       d="m 511.78,100.44 a 1.33,1.33 0 1 1 -1.34,1.32 1.33,1.33 0 0 1 1.34,-1.32 m 0,-0.94 a 2.27,2.27 0 1 0 2.26,2.28 2.27,2.27 0 0 0 -2.26,-2.28 z"
       transform="translate(-142.83,97.68)"
       id="path4364"
       inkscape:connector-curvature="0"
       style="fill:#231f20" />
    <circle
       class="cls-3"
       cx="545.89001"
       cy="69.150002"
       r="3.0599999"
       transform="matrix(0.01,-1,1,0.01,331.12,712.36)"
       id="circle4366"
       style="fill:#c4c4c4" />
    <path
       class="cls-4"
       d="m 405.74857,164.15546 a 3.06,3.06 0 1 1 -3.08,3 3.06,3.06 0 0 1 3.08,-3 m 0,-0.94 a 4,4 0 1 0 4,4 4,4 0 0 0 -4,-4 z"
       id="path4368"
       inkscape:connector-curvature="0"
       style="fill:#231f20" />
    <circle
       class="cls-3"
       cx="545.72998"
       cy="-80.410004"
       r="1.91"
       transform="rotate(-89.71,523.38941,40.210822)"
       id="circle4370"
       style="fill:#c4c4c4" />
    <path
       class="cls-4"
       d="m 545.74,-82.33 a 1.91,1.91 0 0 1 1.9,1.92 1.91,1.91 0 0 1 -1.92,1.9 1.91,1.91 0 0 1 -1.9,-1.92 1.91,1.91 0 0 1 1.92,-1.9 m 0,-0.94 a 2.86,2.86 0 0 0 -2.87,2.84 2.86,2.86 0 0 0 2.84,2.87 2.86,2.86 0 0 0 2.87,-2.84 2.85,2.85 0 0 0 -2.84,-2.87 z"
       transform="translate(-142.83,97.68)"
       id="path4372"
       inkscape:connector-curvature="0"
       style="fill:#231f20" />
    <circle
       class="cls-3"
       cx="406.67999"
       cy="195.91"
       r="2.77"
       transform="rotate(-89.71,384.33913,316.52788)"
       id="circle4374"
       style="fill:#c4c4c4" />
    <path
       class="cls-4"
       d="m 406.69,193.14 a 2.77,2.77 0 1 1 -2.78,2.75 2.77,2.77 0 0 1 2.78,-2.75 m 0,-0.94 a 3.71,3.71 0 1 0 3.69,3.72 3.71,3.71 0 0 0 -3.69,-3.72 z"
       transform="translate(-142.83,97.68)"
       id="path4376"
       inkscape:connector-curvature="0"
       style="fill:#231f20" />
    <circle
       class="cls-3"
       cx="449.01999"
       cy="304.98001"
       r="2.3800001"
       transform="rotate(-89.71,426.68189,425.59771)"
       id="circle4378"
       style="fill:#c4c4c4" />
    <path
       class="cls-4"
       d="m 449,302.6 a 2.38,2.38 0 1 1 -2.39,2.37 2.38,2.38 0 0 1 2.39,-2.37 m 0,-0.94 a 3.32,3.32 0 1 0 3.3,3.33 3.32,3.32 0 0 0 -3.3,-3.33 z"
       transform="translate(-142.83,97.68)"
       id="path4380"
       inkscape:connector-curvature="0"
       style="fill:#231f20" />
    <circle
       class="cls-3"
       cx="478.28"
       cy="315.35999"
       r="3.0799999"
       transform="rotate(-89.71,455.93733,435.98522)"
       id="circle4382"
       style="fill:#c4c4c4" />
    <path
       class="cls-4"
       d="m 478.3,312.28 a 3.08,3.08 0 1 1 -3.1,3.07 3.08,3.08 0 0 1 3.1,-3.07 m 0,-0.94 a 4,4 0 1 0 4,4 4,4 0 0 0 -4,-4 z"
       transform="translate(-142.83,97.68)"
       id="path4384"
       inkscape:connector-curvature="0"
       style="fill:#231f20" />
    <circle
       class="cls-3"
       cx="492.17001"
       cy="254.96001"
       r="1.73"
       transform="rotate(-89.71,469.83009,375.57689)"
       id="circle4386"
       style="fill:#c4c4c4" />
    <path
       class="cls-4"
       d="m 492.18,253.23 a 1.73,1.73 0 1 1 -1.73,1.72 1.73,1.73 0 0 1 1.73,-1.72 m 0,-0.94 a 2.66,2.66 0 1 0 2.65,2.68 2.67,2.67 0 0 0 -2.65,-2.68 z"
       transform="translate(-142.83,97.68)"
       id="path4388"
       inkscape:connector-curvature="0"
       style="fill:#231f20" />
    <circle
       class="cls-3"
       cx="550.34003"
       cy="225.02"
       r="3.3399999"
       transform="rotate(-89.71,527.99709,345.6391)"
       id="circle4390"
       style="fill:#c4c4c4" />
    <path
       class="cls-4"
       d="M 550.36,221.68 A 3.34,3.34 0 1 1 547,225 a 3.34,3.34 0 0 1 3.36,-3.32 m 0,-0.94 a 4.28,4.28 0 1 0 4.26,4.3 4.28,4.28 0 0 0 -4.26,-4.3 z"
       transform="translate(-142.83,97.68)"
       id="path4392"
       inkscape:connector-curvature="0"
       style="fill:#231f20" />
    <circle
       class="cls-3"
       cx="145.14"
       cy="284.82001"
       r="1.37"
       transform="rotate(-89.71,122.81002,405.43362)"
       id="circle4394"
       style="fill:#c4c4c4" />
    <path
       class="cls-4"
       d="m 145.15,283.45 a 1.37,1.37 0 1 1 -1.38,1.37 1.37,1.37 0 0 1 1.38,-1.37 m 0,-0.94 a 2.31,2.31 0 1 0 2.3,2.32 2.32,2.32 0 0 0 -2.3,-2.32 z"
       transform="translate(-142.83,97.68)"
       id="path4396"
       inkscape:connector-curvature="0"
       style="fill:#231f20" />
    <circle
       class="cls-3"
       cx="211.69"
       cy="245.85001"
       r="2.22"
       transform="rotate(-89.71,189.35048,366.46679)"
       id="circle4398"
       style="fill:#c4c4c4" />
    <path
       class="cls-4"
       d="m 211.7,243.63 a 2.22,2.22 0 1 1 -2.23,2.21 2.22,2.22 0 0 1 2.23,-2.21 m 0,-0.94 a 3.16,3.16 0 1 0 3.14,3.18 3.16,3.16 0 0 0 -3.14,-3.18 z"
       transform="translate(-142.83,97.68)"
       id="path4400"
       inkscape:connector-curvature="0"
       style="fill:#231f20" />
    <circle
       class="cls-3"
       cx="341.72"
       cy="105.32"
       r="1.34"
       transform="matrix(0.01,-1,1,0.01,91.82,544.18)"
       id="circle4402"
       style="fill:#c4c4c4" />
    <path
       class="cls-4"
       d="m 200.48343,202.18319 a 1.34,1.34 0 1 1 -1.35,1.33 1.34,1.34 0 0 1 1.35,-1.33 m 0,-0.94 a 2.28,2.28 0 1 0 2.27,2.29 2.28,2.28 0 0 0 -2.27,-2.29 z"
       id="path4404"
       inkscape:connector-curvature="0"
       style="fill:#231f20" />
    <circle
       class="cls-3"
       cx="420.42999"
       cy="161.55"
       r="3.0599999"
       transform="rotate(-89.71,398.0923,282.17099)"
       id="circle4406"
       style="fill:#c4c4c4" />
    <path
       class="cls-4"
       d="m 420.45,158.49 a 3.06,3.06 0 1 1 -3.07,3 3.06,3.06 0 0 1 3.07,-3 m 0,-0.94 a 4,4 0 1 0 4,4 4,4 0 0 0 -4,-4 z"
       transform="translate(-142.83,97.68)"
       id="path4408"
       inkscape:connector-curvature="0"
       style="fill:#231f20" />
    <circle
       class="cls-3"
       cx="360.84"
       cy="168.46001"
       r="1.53"
       transform="rotate(-89.71,338.50354,289.07393)"
       id="circle4410"
       style="fill:#c4c4c4" />
    <path
       class="cls-4"
       d="m 360.84,166.93 a 1.53,1.53 0 1 1 -1.53,1.52 1.53,1.53 0 0 1 1.53,-1.52 m 0,-0.94 a 2.46,2.46 0 1 0 2.45,2.48 2.47,2.47 0 0 0 -2.45,-2.48 z"
       transform="translate(-142.83,97.68)"
       id="path4412"
       inkscape:connector-curvature="0"
       style="fill:#231f20" />
    <circle
       class="cls-3"
       cx="363.25"
       cy="180.10001"
       r="1.72"
       transform="rotate(-89.71,340.90403,300.72242)"
       id="circle4414"
       style="fill:#c4c4c4" />
    <path
       class="cls-4"
       d="m 363.25,178.38 a 1.72,1.72 0 1 1 -1.73,1.72 1.72,1.72 0 0 1 1.73,-1.72 m 0,-0.94 a 2.66,2.66 0 1 0 2.65,2.68 2.67,2.67 0 0 0 -2.65,-2.68 z"
       transform="translate(-142.83,97.68)"
       id="path4416"
       inkscape:connector-curvature="0"
       style="fill:#231f20" />
    <circle
       class="cls-3"
       cx="390.60999"
       cy="200.71001"
       r="1.35"
       transform="rotate(-89.71,368.26046,321.33065)"
       id="circle4418"
       style="fill:#c4c4c4" />
    <path
       class="cls-4"
       d="m 390.61,199.36 a 1.35,1.35 0 1 1 -1.36,1.34 1.35,1.35 0 0 1 1.36,-1.34 m 0,-0.94 a 2.29,2.29 0 1 0 2.28,2.3 2.29,2.29 0 0 0 -2.28,-2.3 z"
       transform="translate(-142.83,97.68)"
       id="path4420"
       inkscape:connector-curvature="0"
       style="fill:#231f20" />
    <circle
       class="cls-3"
       cx="519.59998"
       cy="201.37"
       r="2.3499999"
       transform="rotate(-89.71,497.2544,321.99171)"
       id="circle4422"
       style="fill:#c4c4c4" />
    <path
       class="cls-4"
       d="m 519.61,199 a 2.35,2.35 0 1 1 -2.36,2.33 2.35,2.35 0 0 1 2.36,-2.33 m 0,-0.94 a 3.29,3.29 0 1 0 3.27,3.3 3.29,3.29 0 0 0 -3.27,-3.3 z"
       transform="translate(-142.83,97.68)"
       id="path4424"
       inkscape:connector-curvature="0"
       style="fill:#231f20" />
    <circle
       class="cls-3"
       cx="546.03003"
       cy="101.48"
       r="2.7"
       transform="rotate(-89.71,523.68934,222.11157)"
       id="circle4426"
       style="fill:#c4c4c4" />
    <path
       class="cls-4"
       d="m 546,98.79 a 2.7,2.7 0 1 1 -2.71,2.68 2.7,2.7 0 0 1 2.71,-2.68 m 0,-0.94 a 3.64,3.64 0 1 0 3.62,3.65 3.64,3.64 0 0 0 -3.62,-3.65 z"
       transform="translate(-142.83,97.68)"
       id="path4428"
       inkscape:connector-curvature="0"
       style="fill:#231f20" />
    <circle
       class="cls-3"
       cx="225.46001"
       cy="270.34"
       r="2.9200001"
       transform="rotate(-89.71,203.12225,390.95917)"
       id="circle4430"
       style="fill:#c4c4c4" />
    <path
       class="cls-4"
       d="m 225.47,267.42 a 2.92,2.92 0 1 1 -2.94,2.91 2.92,2.92 0 0 1 2.94,-2.91 m 0,-0.94 a 3.86,3.86 0 1 0 3.84,3.88 3.87,3.87 0 0 0 -3.84,-3.88 z"
       transform="translate(-142.83,97.68)"
       id="path4432"
       inkscape:connector-curvature="0"
       style="fill:#231f20" />
    <circle
       class="cls-3"
       cx="252.78"
       cy="237.69"
       r="1.6799999"
       transform="rotate(-89.71,230.43913,358.30737)"
       id="circle4434"
       style="fill:#c4c4c4" />
    <path
       class="cls-4"
       d="m 252.79,236 a 1.68,1.68 0 1 1 -1.69,1.68 1.68,1.68 0 0 1 1.69,-1.68 m 0,-0.94 a 2.62,2.62 0 1 0 2.61,2.64 2.63,2.63 0 0 0 -2.61,-2.64 z"
       transform="translate(-142.83,97.68)"
       id="path4436"
       inkscape:connector-curvature="0"
       style="fill:#231f20" />
    <circle
       class="cls-3"
       cx="291.22"
       cy="323.70999"
       r="2.6500001"
       transform="rotate(-89.71,268.88381,444.32857)"
       id="circle4438"
       style="fill:#c4c4c4" />
    <path
       class="cls-4"
       d="m 291.24,321.07 a 2.65,2.65 0 1 1 -2.66,2.63 2.65,2.65 0 0 1 2.66,-2.63 m 0,-0.94 a 3.59,3.59 0 1 0 3.57,3.6 3.59,3.59 0 0 0 -3.57,-3.6 z"
       transform="translate(-142.83,97.68)"
       id="path4440"
       inkscape:connector-curvature="0"
       style="fill:#231f20" />
    <circle
       class="cls-3"
       cx="306.79001"
       cy="237.5"
       r="2.77"
       transform="rotate(-89.71,284.44066,358.11557)"
       id="circle4442"
       style="fill:#c4c4c4" />
    <path
       class="cls-4"
       d="m 306.8,234.73 a 2.77,2.77 0 1 1 -2.78,2.75 2.77,2.77 0 0 1 2.78,-2.75 m 0,-0.94 a 3.71,3.71 0 1 0 3.69,3.72 3.71,3.71 0 0 0 -3.69,-3.72 z"
       transform="translate(-142.83,97.68)"
       id="path4444"
       inkscape:connector-curvature="0"
       style="fill:#231f20" />
    <circle
       class="cls-3"
       cx="386.53"
       cy="274.64999"
       r="2.4100001"
       transform="rotate(-89.71,364.18177,395.27355)"
       id="circle4446"
       style="fill:#c4c4c4" />
    <path
       class="cls-4"
       d="m 386.54,272.24 a 2.41,2.41 0 1 1 -2.43,2.4 2.41,2.41 0 0 1 2.43,-2.4 m 0,-0.94 a 3.35,3.35 0 1 0 3.34,3.37 3.36,3.36 0 0 0 -3.34,-3.37 z"
       transform="translate(-142.83,97.68)"
       id="path4448"
       inkscape:connector-curvature="0"
       style="fill:#231f20" />
    <circle
       class="cls-3"
       cx="319.87"
       cy="212.67999"
       r="1.77"
       transform="matrix(0.01,-1,1,0.01,-37.26,629.14)"
       id="circle4450"
       style="fill:#c4c4c4" />
    <path
       class="cls-4"
       d="m 319.88,210.9 a 1.77,1.77 0 1 1 -1.78,1.76 1.77,1.77 0 0 1 1.78,-1.76 m 0,-0.94 a 2.71,2.71 0 1 0 2.7,2.72 2.71,2.71 0 0 0 -2.7,-2.72 z"
       transform="translate(-142.83,97.68)"
       id="path4452"
       inkscape:connector-curvature="0"
       style="fill:#231f20" />
    <circle
       class="cls-3"
       cx="354.62"
       cy="55.610001"
       r="2.1199999"
       transform="rotate(-89.71,332.28794,176.23834)"
       id="circle4454"
       style="fill:#c4c4c4" />
    <path
       class="cls-4"
       d="m 354.63,53.49 a 2.12,2.12 0 1 1 -2.13,2.11 2.12,2.12 0 0 1 2.13,-2.11 m 0,-0.94 a 3.06,3.06 0 1 0 3,3.07 3.06,3.06 0 0 0 -3,-3.07 z"
       transform="translate(-142.83,97.68)"
       id="path4456"
       inkscape:connector-curvature="0"
       style="fill:#231f20" />
    <circle
       class="cls-3"
       cx="408.85001"
       cy="71.940002"
       r="1.5700001"
       transform="rotate(-89.71,386.52173,192.55784)"
       id="circle4458"
       style="fill:#c4c4c4" />
    <path
       class="cls-4"
       d="m 408.86,70.37 a 1.57,1.57 0 1 1 -1.58,1.57 1.57,1.57 0 0 1 1.58,-1.57 m 0,-0.94 a 2.51,2.51 0 1 0 2.5,2.53 2.52,2.52 0 0 0 -2.5,-2.53 z"
       transform="translate(-142.83,97.68)"
       id="path4460"
       inkscape:connector-curvature="0"
       style="fill:#231f20" />
    <circle
       class="cls-3"
       cx="408.81"
       cy="19.370001"
       r="3.3900001"
       transform="rotate(-89.71,386.47893,139.99459)"
       id="circle4466"
       style="fill:#c4c4c4" />
    <path
       class="cls-4"
       d="m 408.83,16 a 3.39,3.39 0 1 1 -3.41,3.37 3.39,3.39 0 0 1 3.41,-3.37 m 0,-0.94 a 4.33,4.33 0 1 0 4.31,4.35 4.33,4.33 0 0 0 -4.3,-4.41 z"
       transform="translate(-142.83,97.68)"
       id="path4468"
       inkscape:connector-curvature="0"
       style="fill:#231f20" />
    <circle
       class="cls-3"
       cx="462.67999"
       cy="47.790001"
       r="1.73"
       transform="rotate(-89.71,440.33231,168.41576)"
       id="circle4470"
       style="fill:#c4c4c4" />
    <path
       class="cls-4"
       d="m 462.68,46.06 a 1.73,1.73 0 1 1 -1.74,1.72 1.73,1.73 0 0 1 1.74,-1.72 m 0,-0.94 a 2.67,2.67 0 1 0 2.65,2.68 2.67,2.67 0 0 0 -2.65,-2.68 z"
       transform="translate(-142.83,97.68)"
       id="path4472"
       inkscape:connector-curvature="0"
       style="fill:#231f20" />
    <circle
       class="cls-3"
       cx="436.98999"
       cy="-58.869999"
       r="1.92"
       transform="rotate(-89.71,414.65291,61.754966)"
       id="circle4474"
       style="fill:#c4c4c4" />
    <path
       class="cls-4"
       d="m 437,-60.79 a 1.92,1.92 0 0 1 1.91,1.93 1.92,1.92 0 0 1 -1.91,1.91 1.92,1.92 0 0 1 -1.91,-1.93 1.92,1.92 0 0 1 1.91,-1.91 m 0,-0.94 a 2.86,2.86 0 0 0 -2.88,2.85 2.86,2.86 0 0 0 2.88,2.88 2.86,2.86 0 0 0 2.88,-2.85 2.86,2.86 0 0 0 -2.88,-2.88 z"
       transform="translate(-142.83,97.68)"
       id="path4476"
       inkscape:connector-curvature="0"
       style="fill:#231f20" />
    <circle
       class="cls-3"
       cx="548.37"
       cy="309.20999"
       r="1.8"
       transform="rotate(-89.71,526.01458,429.8277)"
       id="circle4478"
       style="fill:#c4c4c4" />
    <path
       class="cls-4"
       d="m 548.38,307.41 a 1.8,1.8 0 1 1 -1.81,1.79 1.8,1.8 0 0 1 1.81,-1.79 m 0,-0.94 a 2.74,2.74 0 1 0 2.72,2.75 2.74,2.74 0 0 0 -2.72,-2.75 z"
       transform="translate(-142.83,97.68)"
       id="path4480"
       inkscape:connector-curvature="0"
       style="fill:#231f20" />
    <circle
       class="cls-3"
       cx="572.53003"
       cy="230.94"
       r="2.24"
       transform="matrix(0.01,-1,1,0.01,195.84,899.97)"
       id="circle4482"
       style="fill:#c4c4c4" />
    <path
       class="cls-4"
       d="m 572.54,228.71 a 2.24,2.24 0 1 1 -2.25,2.22 2.24,2.24 0 0 1 2.25,-2.22 m 0,-0.94 a 3.17,3.17 0 1 0 3.16,3.19 3.18,3.18 0 0 0 -3.16,-3.19 z"
       transform="translate(-142.83,97.68)"
       id="path4484"
       inkscape:connector-curvature="0"
       style="fill:#231f20" />
  </g>
</svg>
